<svg width="133" height="132" viewBox="0 0 133 132" fill="none" xmlns="http://www.w3.org/2000/svg">
<path d="M4.91798 64.651C4.34591 64.5839 3.82925 64.3192 3.36801 63.8569C2.90678 63.3946 2.53711 62.7927 2.25902 62.0512C1.97844 61.3309 1.78321 60.524 1.67333 59.6304C1.56345 58.7368 1.56325 57.8239 1.67271 56.8917C1.98618 54.222 3.21646 52.2507 5.36356 50.9777C7.51066 49.7048 10.4275 49.2847 14.1142 49.7176C17.8009 50.1505 20.5399 51.2454 22.3312 53.0023C24.1201 54.7803 24.8541 57.036 24.5331 59.7692C24.4336 60.6167 24.2531 61.4225 23.9915 62.1865C23.73 62.9506 23.416 63.6118 23.0498 64.1702C22.681 64.7499 22.2754 65.1855 21.833 65.4773C21.3882 65.7902 20.9221 65.918 20.4348 65.8608C20.011 65.8111 19.6427 65.5638 19.3297 65.1189C19.038 64.6765 18.9569 64.087 19.0863 63.3504C20.3351 63.3252 21.309 62.9885 22.0081 62.3403C22.7258 61.7157 23.1531 60.8208 23.2899 59.6554C23.5039 57.8333 22.8075 56.3553 21.2007 55.2216C19.6152 54.0903 17.1274 53.3256 13.7373 52.9275C10.3473 52.5295 7.74065 52.6852 5.91747 53.3948C4.11298 54.128 3.105 55.3951 2.89354 57.1961C2.80398 57.9589 2.88079 58.6767 3.12397 59.3497C3.36466 60.0438 3.7767 60.6507 4.36009 61.1702C4.96218 61.7135 5.73 62.1258 6.66355 62.4073C6.65865 62.8148 6.59268 63.1937 6.46564 63.544C6.3386 63.8942 6.14486 64.1722 5.88443 64.3779C5.64269 64.6073 5.32054 64.6983 4.91798 64.651ZM3.65312 84.8679C3.43418 83.9332 3.58828 83.1411 4.11542 82.4918C4.64742 81.8633 5.64041 81.3787 7.09439 81.0381L9.58693 80.4543L9.48363 81.1358C8.18029 81.0905 6.96022 80.8395 5.82342 80.3827C4.7074 79.9211 3.75707 79.2782 2.97245 78.4541C2.20859 77.6251 1.69287 76.6394 1.42528 75.497C1.14309 74.2923 1.24124 73.2614 1.71973 72.4043C2.21898 71.5424 3.01905 70.9826 4.11992 70.7247C5.01307 70.5155 5.84551 70.5615 6.61722 70.8628C7.3938 71.1848 8.10301 71.687 8.74486 72.3693C9.38671 73.0515 9.95454 73.8388 10.4484 74.731C10.8812 75.5499 11.2438 76.3961 11.536 77.2698C11.8283 78.1435 12.0492 78.9463 12.1988 79.6782L12.9777 79.4957C14.764 79.0773 16.0381 78.4831 16.7998 77.7131C17.5824 76.9382 17.8156 75.8757 17.4993 74.5255C17.3874 74.0478 17.2028 73.5871 16.9455 73.1434C16.6931 72.7205 16.3434 72.3971 15.8966 72.1731C15.4754 71.965 14.9428 71.9363 14.2989 72.0872C13.9042 72.1796 13.5003 72.3728 13.0871 72.6668C12.6996 72.9767 12.4683 73.3924 12.3933 73.9139C12.0954 73.7646 11.8604 73.5567 11.6885 73.2902C11.5373 73.0189 11.4252 72.7274 11.3522 72.4159C11.1722 71.6473 11.3091 70.9689 11.7629 70.3806C12.2423 69.8081 12.8351 69.4392 13.5413 69.2738C14.7668 68.9868 15.8304 69.3182 16.7322 70.2683C17.634 71.2183 18.3038 72.6281 18.7417 74.4975C19.2525 76.6784 19.0767 78.4067 18.2142 79.6824C17.3774 80.9739 15.8062 81.8897 13.5006 82.4298L7.4562 83.8456C6.35533 84.1035 5.89004 84.5959 6.06032 85.3229C6.09438 85.4683 6.17485 85.6247 6.30172 85.7922C6.45423 85.9756 6.64893 86.1052 6.88584 86.1812C6.72809 86.3496 6.56061 86.4765 6.3834 86.5618C6.23183 86.6631 6.07295 86.7332 5.90679 86.7721C5.42905 86.884 4.97293 86.7608 4.53842 86.4024C4.10391 86.0441 3.80881 85.5325 3.65312 84.8679ZM3.67081 76.3843C3.82294 76.9402 4.13572 77.4805 4.60916 78.005C5.10336 78.5246 5.69964 78.9656 6.398 79.3279C7.09636 79.6901 7.85591 79.9395 8.67665 80.0759C9.49739 80.2123 10.3256 80.1936 11.1613 80.0198C11.0702 79.5372 10.9382 79.0203 10.7653 78.4692C10.618 77.9341 10.4292 77.4086 10.1988 76.8929C9.97335 76.3979 9.71848 75.9646 9.43424 75.593C8.92319 74.8144 8.33131 74.2519 7.65859 73.9055C6.98586 73.5591 6.25485 73.4784 5.46555 73.6632C4.86318 73.8043 4.35167 74.0994 3.93101 74.5485C3.53112 74.9928 3.44438 75.6047 3.67081 76.3843ZM25.7492 92.075C26.3645 93.0235 26.6636 93.9356 26.6467 94.8112C26.6477 95.6751 26.4363 96.4861 26.0125 97.244C25.5888 98.002 25.0238 98.6991 24.3175 99.3352C23.6408 99.9776 22.9266 100.543 22.1749 101.03C19.705 102.632 17.459 103.364 15.437 103.226C13.4267 103.106 11.8468 102.161 10.6975 100.389C10.1171 99.4938 9.80264 98.617 9.75427 97.7584C9.71751 96.9177 9.92528 96.1599 10.3776 95.4851L7.5318 97.331C7.15594 97.5748 6.7143 97.874 6.20687 98.2285C5.71105 98.601 5.22103 98.9824 4.73682 99.3728C4.24632 99.7927 3.84216 100.169 3.52435 100.503C3.34731 100.465 3.11488 100.361 2.82707 100.192C2.53296 100.052 2.27562 99.8122 2.05504 99.4722C1.78803 99.0605 1.69274 98.6392 1.76917 98.2082C1.8277 97.7888 2.05385 97.4514 2.4476 97.196L17.8483 87.2447C18.3494 86.9196 18.6636 86.6395 18.7908 86.4044C18.9359 86.1577 18.9156 85.8912 18.7299 85.6048C18.6718 85.5154 18.5785 85.4106 18.4498 85.2907C18.3211 85.1707 18.1383 85.124 17.9013 85.1506C17.9927 84.9387 18.1015 84.7537 18.2278 84.5955C18.354 84.4374 18.4798 84.3176 18.6051 84.2364C18.9988 83.981 19.4255 83.9331 19.885 84.0927C20.3446 84.2524 20.7369 84.5827 21.0619 85.0839C21.5959 85.9072 21.6479 86.7126 21.2179 87.5001C20.8174 88.2939 20.0444 89.0623 18.8989 89.8053L16.6438 91.268L16.0727 90.7993C17.0731 90.303 18.0362 89.9453 18.962 89.7262C19.9174 89.5134 20.8029 89.4476 21.6184 89.5288C22.4635 89.6164 23.2355 89.8658 23.9345 90.2769C24.6335 90.6881 25.2384 91.2874 25.7492 92.075ZM23.8641 92.3441C23.4578 91.7177 22.9041 91.2758 22.2032 91.0185C21.5139 90.779 20.7279 90.704 19.8451 90.7935C18.9918 90.8893 18.0865 91.1205 17.1292 91.4872C16.2014 91.8601 15.2811 92.3426 14.3683 92.9347C13.724 93.3526 13.1445 93.7921 12.6298 94.2531C12.133 94.7025 11.7395 95.1739 11.4493 95.6673C11.1885 96.1669 11.0695 96.6891 11.0923 97.2338C11.115 97.7785 11.3179 98.3461 11.701 98.9368C12.4904 100.154 13.6195 100.718 15.0881 100.63C16.5745 100.531 18.3738 99.7959 20.4857 98.426C21.13 98.0081 21.7332 97.5659 22.2953 97.0996C22.8869 96.6396 23.3605 96.1544 23.7161 95.6441C24.1011 95.1401 24.3207 94.6162 24.3749 94.0725C24.4291 93.5288 24.2588 92.9527 23.8641 92.3441ZM37.0929 104.388C37.9933 105.072 38.5839 105.829 38.8647 106.658C39.1584 107.471 39.2344 108.305 39.0926 109.162C38.9509 110.019 38.6556 110.866 38.2067 111.704C37.7878 112.538 37.3073 113.311 36.7653 114.025C34.9846 116.369 33.1197 117.819 31.1707 118.375C29.2386 118.943 27.4317 118.589 25.7499 117.311C24.9005 116.666 24.3075 115.948 23.971 115.156C23.6515 114.378 23.5901 113.595 23.7869 112.806L21.7352 115.508C21.4642 115.864 21.1501 116.296 20.7929 116.801C20.4527 117.32 20.1209 117.844 19.7977 118.376C19.4785 118.937 19.2259 119.428 19.0399 119.85C18.8605 119.874 18.6068 119.856 18.2786 119.794C17.9545 119.762 17.6311 119.623 17.3083 119.378C16.9176 119.081 16.6851 118.717 16.611 118.286C16.5239 117.872 16.6223 117.478 16.9062 117.104L28.0225 102.522C28.3839 102.046 28.5845 101.676 28.6245 101.412C28.6774 101.13 28.568 100.887 28.2962 100.68C28.2112 100.616 28.0879 100.549 27.9262 100.479C27.7645 100.41 27.5766 100.428 27.3627 100.534C27.3769 100.303 27.4166 100.092 27.4817 99.9008C27.5469 99.7092 27.6246 99.5539 27.715 99.435C27.9989 99.0612 28.384 98.8716 28.8705 98.866C29.3569 98.8604 29.838 99.0383 30.3136 99.3996C31.0951 99.9932 31.417 100.733 31.2793 101.62C31.1715 102.503 30.7047 103.487 29.8789 104.575L28.253 106.715L27.5569 106.468C28.3298 105.662 29.1146 104.999 29.9114 104.479C30.7381 103.955 31.5489 103.593 32.3437 103.393C33.1684 103.189 33.9793 103.162 34.7762 103.312C35.5732 103.462 36.3454 103.821 37.0929 104.388ZM35.4106 105.28C34.8161 104.829 34.1454 104.601 33.3988 104.596C32.6691 104.604 31.9042 104.8 31.104 105.184C30.3336 105.563 29.5603 106.087 28.7839 106.757C28.0374 107.422 27.3352 108.188 26.6771 109.054C26.2125 109.666 25.8163 110.276 25.4883 110.884C25.1732 111.475 24.9627 112.052 24.8569 112.615C24.781 113.173 24.846 113.705 25.052 114.209C25.258 114.714 25.6413 115.179 26.2019 115.605C27.3571 116.483 28.6106 116.631 29.9624 116.051C31.3272 115.453 32.7709 114.152 34.2935 112.147C34.7581 111.536 35.1757 110.915 35.5465 110.286C35.9472 109.653 36.2283 109.036 36.3898 108.435C36.5812 107.831 36.6103 107.263 36.477 106.733C36.3437 106.203 35.9882 105.719 35.4106 105.28ZM50.4117 129.523C49.4961 129.235 48.8935 128.698 48.6039 127.914C48.3346 127.136 48.4244 126.034 48.8732 124.61L49.6425 122.168L50.176 122.605C49.4722 123.703 48.6339 124.624 47.6611 125.369C46.6947 126.093 45.657 126.583 44.548 126.837C43.4453 127.071 42.3344 127.012 41.2153 126.659C40.0352 126.288 39.1986 125.677 38.7055 124.829C38.2189 123.96 38.1454 122.986 38.4852 121.907C38.7609 121.032 39.2251 120.34 39.8779 119.83C40.551 119.326 41.3447 118.972 42.259 118.768C43.1732 118.564 44.14 118.477 45.1593 118.508C46.0844 118.553 46.9972 118.673 47.8978 118.867C48.7984 119.062 49.6015 119.281 50.3073 119.526L50.5477 118.763C51.099 117.013 51.2379 115.614 50.9642 114.566C50.6969 113.498 49.9019 112.755 48.5794 112.338C48.1114 112.191 47.6209 112.115 47.1081 112.11C46.6156 112.111 46.159 112.247 45.7384 112.517C45.3445 112.773 45.0483 113.217 44.8495 113.847C44.7277 114.234 44.6878 114.68 44.7299 115.185C44.7988 115.677 45.0383 116.088 45.4486 116.418C45.1682 116.598 44.8696 116.694 44.5526 116.706C44.2421 116.698 43.9343 116.646 43.6291 116.55C42.8762 116.312 42.3625 115.848 42.088 115.158C41.8402 114.454 41.8253 113.756 42.0433 113.064C42.4215 111.863 43.2492 111.118 44.5264 110.827C45.8035 110.536 47.3577 110.679 49.189 111.256C51.3254 111.929 52.7223 112.962 53.3795 114.354C54.0635 115.733 54.0497 117.551 53.3381 119.81L51.4725 125.731C51.1327 126.809 51.3189 127.461 52.031 127.685C52.1734 127.73 52.349 127.741 52.5578 127.717C52.7933 127.679 53.0042 127.578 53.1904 127.413C53.2548 127.635 53.2785 127.843 53.2615 128.039C53.2712 128.221 53.2505 128.394 53.1992 128.556C53.0517 129.024 52.7131 129.354 52.1832 129.545C51.6533 129.736 51.0628 129.729 50.4117 129.523ZM43.1239 125.181C43.6797 125.333 44.3039 125.34 44.9966 125.2C45.6956 125.04 46.3791 124.752 47.0469 124.337C47.7148 123.921 48.3167 123.395 48.8527 122.758C49.3887 122.122 49.7951 121.4 50.0719 120.593C49.6103 120.425 49.0984 120.275 48.5362 120.142C48.0008 119.996 47.4525 119.89 46.8914 119.825C46.3507 119.767 45.848 119.765 45.3834 119.82C44.453 119.862 43.6672 120.084 43.0261 120.486C42.3851 120.888 41.9427 121.476 41.6991 122.249C41.5132 122.839 41.5061 123.43 41.6778 124.02C41.8559 124.591 42.3379 124.978 43.1239 125.181ZM64.3929 131.573C63.2844 131.616 62.3592 131.427 61.6171 131.007C60.8956 130.565 60.3175 129.969 59.8829 129.217C59.4483 128.465 59.1281 127.634 58.9223 126.724C58.7156 125.792 58.5947 124.868 58.5594 123.952C58.4469 121.031 58.9346 118.728 60.0226 117.042C61.1318 115.356 62.7736 114.471 64.948 114.387C66.0352 114.345 66.9494 114.523 67.6906 114.922C68.4532 115.319 68.9984 115.896 69.3264 116.652L69.1836 112.943C69.1524 112.133 69.0892 111.324 68.9941 110.516C68.8981 109.687 68.7411 108.936 68.5229 108.261C68.6459 108.128 68.8431 107.982 69.1145 107.822C69.4064 107.64 69.7548 107.541 70.1598 107.525C70.6501 107.506 71.0605 107.629 71.3909 107.894C71.7214 108.159 71.8965 108.547 71.9162 109.059L72.5836 127.223C72.6058 127.798 72.7075 128.221 72.8887 128.492C73.0904 128.74 73.3511 128.858 73.6709 128.846C73.7775 128.842 73.9152 128.815 74.0841 128.766C74.2735 128.695 74.4071 128.561 74.485 128.366C74.6408 128.531 74.7437 128.709 74.7937 128.899C74.8651 129.088 74.9036 129.257 74.9094 129.407C74.9283 129.897 74.7409 130.299 74.3474 130.613C73.953 130.906 73.4467 131.064 72.8285 131.088C71.8692 131.125 71.1403 130.769 70.6418 130.019C70.1637 129.248 69.898 128.169 69.8447 126.784L69.7449 124.194L70.4398 123.943C70.3546 125.056 70.1587 126.067 69.8521 126.975C69.5668 127.883 69.1704 128.678 68.6629 129.359C68.1767 130.04 67.5782 130.575 66.8674 130.965C66.1557 131.334 65.3309 131.537 64.3929 131.573ZM65.1259 129.815C65.872 129.787 66.5242 129.537 67.0825 129.068C67.6614 128.576 68.1274 127.928 68.4808 127.124C68.8554 126.32 69.119 125.402 69.2715 124.372C69.4452 123.34 69.5104 122.26 69.4668 121.13C69.4422 120.49 69.3647 119.864 69.2343 119.25C69.1031 118.614 68.8997 118.045 68.6242 117.544C68.3487 117.042 67.9601 116.651 67.4583 116.372C66.9565 116.092 66.3219 115.967 65.5544 115.997C64.1901 116.049 63.1706 116.74 62.4959 118.068C61.8416 119.374 61.5621 121.264 61.6574 123.736C61.6886 124.546 61.7505 125.323 61.8432 126.067C61.9572 126.81 62.1429 127.475 62.4004 128.063C62.6571 128.63 63.0051 129.075 63.4446 129.4C63.8833 129.703 64.4437 129.842 65.1259 129.815ZM88.6739 127.641C86.4971 128.517 84.5163 128.51 82.7316 127.619C80.9586 126.7 79.5701 124.994 78.5661 122.5C77.554 119.987 77.3687 117.785 78.0101 115.894C78.6712 113.995 80.0902 112.607 82.267 111.73C84.4438 110.854 86.4186 110.875 88.1916 111.794C89.9645 112.713 91.357 114.429 92.369 116.942C93.3731 119.435 93.5544 121.628 92.9131 123.519C92.2637 125.39 90.8507 126.764 88.6739 127.641ZM88.2197 126.513C89.5257 125.987 90.2801 125.005 90.4828 123.566C90.7053 122.12 90.3742 120.298 89.4897 118.101C88.5972 115.885 87.5695 114.333 86.4068 113.444C85.2558 112.527 84.0273 112.332 82.7212 112.858C81.3953 113.392 80.6251 114.392 80.4106 115.858C80.208 117.297 80.5529 119.124 81.4454 121.341C82.3299 123.537 83.3437 125.084 84.4867 125.981C85.6495 126.869 86.8938 127.047 88.2197 126.513ZM108.032 116.72C106.239 118.267 104.36 118.931 102.395 118.711C100.446 118.477 98.5652 117.311 96.7529 115.212C95.0103 113.193 94.1459 111.163 94.1595 109.122C94.1753 107.051 95.1199 105.207 96.9931 103.59C98.3657 102.405 99.6582 101.797 100.871 101.765C102.083 101.733 103.073 102.161 103.839 103.049C104.341 103.63 104.584 104.238 104.568 104.872C104.551 105.506 104.285 106.046 103.768 106.492C103.542 106.687 103.273 106.849 102.961 106.978C102.665 107.092 102.376 107.116 102.094 107.05C102.24 106.698 102.26 106.329 102.152 105.943C102.044 105.557 101.823 105.17 101.489 104.782C101.084 104.314 100.652 104.025 100.191 103.916C99.7323 103.776 99.2857 103.781 98.8512 103.931C98.4167 104.08 97.9895 104.336 97.5697 104.699C96.6008 105.535 96.1918 106.677 96.3426 108.125C96.4957 109.543 97.3181 111.116 98.8097 112.844C99.925 114.136 100.994 115.031 102.016 115.53C103.04 115.998 104.005 116.152 104.909 115.992C105.815 115.801 106.64 115.385 107.383 114.744C107.964 114.242 108.405 113.692 108.706 113.094C109.023 112.482 109.191 111.844 109.21 111.18C109.228 110.515 109.072 109.861 108.741 109.217C108.958 109.142 109.183 109.174 109.415 109.312C109.647 109.45 109.887 109.777 110.137 110.295C110.601 111.388 110.641 112.495 110.256 113.616C109.871 114.737 109.13 115.772 108.032 116.72ZM103.425 94.3118C103.135 94.734 102.732 95.0008 102.216 95.1123C101.712 95.2061 101.248 95.1082 100.826 94.8186C100.386 94.5169 100.12 94.1139 100.026 93.6097C99.9439 93.0879 100.048 92.6159 100.337 92.1937C100.627 91.7715 101.024 91.5134 101.528 91.4196C102.033 91.3257 102.505 91.4296 102.944 91.7313C103.366 92.021 103.625 92.4179 103.718 92.9221C103.812 93.4264 103.714 93.8896 103.425 94.3118ZM116.925 101.672C117.435 102.022 117.963 102.346 118.51 102.643C119.056 102.94 119.588 103.163 120.107 103.312C120.14 103.49 120.134 103.745 120.088 104.075C120.072 104.401 119.949 104.73 119.72 105.065C119.454 105.452 119.117 105.699 118.707 105.806C118.292 105.883 117.882 105.783 117.477 105.505L108.145 99.141C107.617 98.779 107.08 98.4493 106.533 98.1521C105.999 97.8373 105.467 97.6142 104.936 97.4829C104.915 97.2873 104.921 97.0329 104.955 96.7198C104.989 96.4066 105.12 96.0829 105.349 95.7487C105.615 95.3617 105.947 95.1235 106.344 95.0341C106.736 94.915 107.143 95.0004 107.566 95.29L116.925 101.672ZM129.492 83.5411C129.181 84.4496 128.631 85.0392 127.839 85.3099C127.055 85.5605 125.956 85.4444 124.543 84.9617L122.12 84.1342L122.569 83.6113C123.65 84.3412 124.551 85.2012 125.272 86.1916C125.974 87.175 126.438 88.2241 126.666 89.339C126.874 90.4469 126.788 91.556 126.408 92.6664C126.009 93.8373 125.378 94.6591 124.518 95.1317C123.638 95.5974 122.662 95.6475 121.592 95.282C120.724 94.9855 120.043 94.5048 119.549 93.84C119.061 93.155 118.727 92.3531 118.545 91.4342C118.362 90.5154 118.299 89.5468 118.354 88.5285C118.421 87.6048 118.563 86.695 118.779 85.7994C118.994 84.9037 119.233 84.106 119.495 83.4063L118.738 83.1477C117.001 82.5547 115.606 82.3824 114.552 82.631C113.477 82.8726 112.716 83.6496 112.268 84.9618C112.109 85.4261 112.021 85.9146 112.004 86.4272C111.994 86.9196 112.118 87.3793 112.378 87.8062C112.625 88.2061 113.061 88.5129 113.687 88.7267C114.071 88.8577 114.515 88.9082 115.022 88.8782C115.515 88.8212 115.931 88.5915 116.271 88.1892C116.445 88.4739 116.534 88.7748 116.538 89.0919C116.522 89.4021 116.463 89.7086 116.359 90.0114C116.104 90.7584 115.628 91.2608 114.931 91.5188C114.221 91.7496 113.523 91.7478 112.837 91.5134C111.645 91.1065 110.92 90.2612 110.659 88.9775C110.399 87.6937 110.579 86.1434 111.2 84.3265C111.924 82.2067 112.99 80.835 114.398 80.2113C115.792 79.5605 117.61 79.6178 119.851 80.3832L125.726 82.39C126.796 82.7555 127.451 82.5849 127.693 81.8783C127.741 81.737 127.756 81.5617 127.737 81.3524C127.705 81.1161 127.609 80.9029 127.448 80.7128C127.671 80.6537 127.881 80.635 128.076 80.6567C128.258 80.6513 128.43 80.6762 128.592 80.7314C129.056 80.89 129.377 81.2364 129.555 81.7707C129.734 82.305 129.712 82.8951 129.492 83.5411ZM124.976 90.7229C125.142 90.171 125.163 89.5471 125.04 88.8513C124.897 88.1486 124.626 87.4585 124.226 86.7809C123.826 86.1033 123.314 85.4889 122.691 84.9378C122.068 84.3868 121.356 83.9632 120.555 83.6672C120.376 84.1246 120.214 84.6328 120.068 85.1916C119.909 85.7234 119.79 86.269 119.712 86.8284C119.641 87.3675 119.627 87.87 119.671 88.3359C119.691 89.267 119.894 90.0579 120.28 90.7084C120.667 91.3589 121.244 91.8152 122.011 92.0772C122.596 92.2772 123.186 92.2984 123.781 92.1409C124.356 91.9765 124.754 91.5039 124.976 90.7229ZM132.189 59.8052C132.258 60.3341 132.136 60.8017 131.823 61.2081C131.51 61.6144 131.099 61.8505 130.592 61.9165C130.063 61.9852 129.595 61.863 129.189 61.5501C128.783 61.2371 128.545 60.8162 128.476 60.2873C128.41 59.7796 128.534 59.3225 128.847 58.9162C129.16 58.5098 129.581 58.2723 130.11 58.2036C130.617 58.1377 131.074 58.2612 131.481 58.5742C131.887 58.8871 132.123 59.2975 132.189 59.8052ZM122.247 31.5124C122.511 31.9259 122.612 32.3421 122.551 32.7611C122.471 33.1916 122.225 33.5389 121.811 33.803L104.623 44.8205L103.218 42.2631L118.033 32.7615C118.554 32.4285 119.058 32.0685 119.545 31.6815C120.032 31.2945 120.445 30.8913 120.785 30.4718C120.962 30.5108 121.193 30.6159 121.48 30.7873C121.773 30.9291 122.029 31.1708 122.247 31.5124ZM109.379 48.5796C109.422 48.8053 109.376 49.05 109.24 49.3137C109.075 49.5709 108.875 49.8125 108.64 50.0387C108.394 50.247 108.157 50.3725 107.932 50.4155C107.688 50.4699 107.509 50.4072 107.394 50.2274L99.2801 37.5257C99.1653 37.3459 99.1895 37.1659 99.3528 36.9856C99.4867 36.7989 99.7056 36.6463 100.01 36.528C100.302 36.3917 100.606 36.3118 100.92 36.2884C101.205 36.2584 101.44 36.3104 101.627 36.4442C101.833 37.1229 102.079 37.8645 102.365 38.669C102.621 39.467 102.916 40.2658 103.25 41.0653C103.583 41.8648 103.968 42.6062 104.405 43.2894C104.83 43.9546 105.329 44.5975 105.903 45.2183C106.477 45.8391 107.071 46.4336 107.688 47.002C108.274 47.5638 108.838 48.0897 109.379 48.5796ZM95.0101 27.1025C94.6459 26.8065 94.4337 26.4418 94.3737 26.0082C94.3136 25.5746 94.4585 25.1426 94.8082 24.7121L102.027 15.7755C102.404 15.3119 102.623 14.9403 102.685 14.6609C102.717 14.3846 102.617 14.1523 102.386 13.964C102.286 13.8833 102.157 13.8057 101.998 13.7312C101.825 13.6733 101.636 13.6852 101.433 13.7669C101.466 13.354 101.596 13.0068 101.825 12.7254C102.121 12.3611 102.504 12.1774 102.974 12.1743C103.427 12.1577 103.902 12.3512 104.399 12.7547C105.061 13.2928 105.399 13.925 105.414 14.6515C105.399 15.381 105.028 16.1929 104.301 17.087L103.03 18.6517L102.254 18.8458C103.16 17.933 104.108 17.2738 105.097 16.8681C106.073 16.4789 107.046 16.348 108.014 16.4752C108.953 16.6055 109.844 17.0137 110.689 17.6998C112.013 18.7759 112.682 19.9654 112.696 21.2682C112.679 22.5742 111.904 24.1709 110.371 26.0585L106.416 30.9265C106.066 31.357 105.715 31.8408 105.361 32.3779C104.993 32.9316 104.714 33.4609 104.524 33.9659C104.267 33.9773 103.999 33.952 103.72 33.8899C103.411 33.8309 103.107 33.6804 102.809 33.4382C102.428 33.1288 102.209 32.7724 102.152 32.3688C102.079 31.9518 102.203 31.5446 102.526 31.1472L107.893 24.5406C108.714 23.5306 109.312 22.6421 109.688 21.8753C110.05 21.125 110.186 20.4664 110.097 19.8993C109.978 19.3353 109.629 18.8179 109.05 18.3471C108.652 18.0243 108.176 17.8158 107.62 17.7217C107.064 17.6275 106.441 17.6845 105.749 17.8925C105.045 18.1171 104.299 18.528 103.511 19.1251C102.707 19.7088 101.875 20.5305 101.014 21.5902C100.234 22.5505 99.5962 23.352 99.1016 23.9947C98.5905 24.6239 98.1817 25.1439 97.8755 25.5547C97.5557 25.9821 97.3214 26.3552 97.1724 26.6739C96.9934 26.9958 96.8376 27.3228 96.7052 27.655C96.5251 27.6736 96.2804 27.6534 95.971 27.5945C95.6616 27.5355 95.3413 27.3715 95.0101 27.1025ZM94.3569 6.45485C94.7558 6.60636 95.0617 6.88232 95.2747 7.28273C95.4802 7.70308 95.4882 8.16255 95.2988 8.66112L91.2421 19.3406C91.03 19.899 90.9521 20.3144 91.0083 20.5868C91.0371 20.8716 91.201 21.0708 91.5002 21.1844C91.5999 21.2223 91.7409 21.2416 91.9232 21.2424C92.0979 21.2631 92.2692 21.2026 92.4371 21.061C92.5552 21.471 92.5498 21.8455 92.421 22.1846C92.2468 22.6433 91.9471 22.9516 91.522 23.1096C91.0769 23.26 90.5452 23.2178 89.927 22.983C89.1293 22.6799 88.6308 22.1597 88.4317 21.4223C88.2051 20.6972 88.3215 19.7601 88.7808 18.611L89.4399 16.876L89.7761 17.0722C88.9128 18.684 87.9493 19.7785 86.8857 20.3558C85.7945 20.9454 84.6706 21.0205 83.5139 20.5811C82.4769 20.1872 81.7354 19.586 81.2894 18.7776C80.8358 17.9892 80.8022 17.0864 81.1885 16.0693C81.4461 15.3912 81.8477 14.9048 82.3933 14.61C82.9388 14.3152 83.4647 14.2525 83.9708 14.422C84.5368 14.6141 84.8964 14.8991 85.0496 15.2767C84.654 15.5372 84.3732 15.7957 84.2074 16.0522C84.0339 16.3286 83.8828 16.6363 83.754 16.9754C83.5191 17.5936 83.4883 18.0953 83.6614 18.4806C83.827 18.8858 84.179 19.1907 84.7175 19.3952C85.236 19.5922 85.8155 19.5385 86.456 19.2341C87.0889 18.9496 87.742 18.3419 88.4151 17.4109C89.0807 16.4999 89.7354 15.1968 90.3793 13.5017C90.8111 12.3649 91.171 11.4176 91.4588 10.6598C91.7192 9.91432 91.9341 9.28851 92.1035 8.78236C92.2654 8.29615 92.3808 7.87217 92.4498 7.51041C92.5112 7.1686 92.5388 6.82539 92.5328 6.4808C92.6979 6.40659 92.9466 6.35272 93.2788 6.31917C93.5911 6.27806 93.9505 6.32328 94.3569 6.45485ZM76.5548 1.01058C77.1939 1.04312 77.6226 1.22514 77.8407 1.55666C78.0364 1.9084 78.1217 2.32928 78.0968 2.81931L77.0572 23.2409C77.0525 23.7533 76.8833 24.1399 76.5496 24.4006C76.2159 24.6613 75.8041 24.7791 75.314 24.7542C74.8879 24.7325 74.5407 24.6294 74.2724 24.4448C74.003 24.2816 73.8077 24.1328 73.6863 23.9985C73.8424 23.451 73.9536 22.944 74.0201 22.4775C74.0866 22.0109 74.152 21.5657 74.2163 21.1417C74.2582 20.738 74.2905 20.3124 74.3133 19.865C74.335 19.4389 74.3796 18.9819 74.4472 18.494L74.7834 12.5194L74.9621 12.7848C74.6096 13.8349 74.1262 14.7288 73.5119 15.4666C72.8752 16.2245 72.1193 16.8055 71.2443 17.2095C70.3693 17.6136 69.3885 17.7879 68.3019 17.7326C66.9597 17.6643 65.9757 17.2724 65.3499 16.557C64.7241 15.8416 64.4383 14.9513 64.4926 13.886C64.537 13.0125 64.8009 12.2355 65.2841 11.5552C65.7449 10.8951 66.3292 10.3268 67.037 9.85013C67.7236 9.37241 68.4595 8.97198 69.245 8.64883C68.9734 8.5282 68.7483 8.33517 68.5695 8.06974C68.3684 7.82453 68.1695 7.53671 67.9727 7.20628L66.4318 4.11594C66.218 3.6992 66.0415 3.39116 65.9021 3.19182C65.7403 3.01269 65.5103 2.91554 65.212 2.90036C65.1055 2.89493 64.9659 2.90919 64.7933 2.94312C64.6196 2.99836 64.4544 3.09676 64.2977 3.23831C64.1561 3.08157 64.0577 2.91636 64.0025 2.74266C63.9472 2.56896 63.9239 2.39689 63.9326 2.22644C63.9597 1.6938 64.2275 1.25885 64.736 0.921596C65.2221 0.604565 65.7634 0.461234 66.36 0.491602C66.9352 0.520886 67.4485 0.717904 67.8999 1.08266C68.3513 1.44741 68.6986 1.96708 68.942 2.64165L71.2606 8.07856C71.933 7.87782 72.5937 7.69784 73.2426 7.53863C73.8691 7.39964 74.452 7.27978 74.9911 7.17906C75.0378 6.26291 75.0768 5.49591 75.1083 4.87804C75.1386 4.28148 75.1529 3.7909 75.1511 3.40632C75.127 3.04195 75.09 2.71965 75.0402 2.43942C74.968 2.17942 74.8867 1.88691 74.7965 1.5619C74.9745 1.42143 75.2053 1.29434 75.4887 1.1806C75.752 1.04448 76.1073 0.987801 76.5548 1.01058ZM74.9293 8.39349C74.0641 8.60577 73.1967 8.86067 72.3271 9.15818C71.4351 9.47591 70.6363 9.85178 69.9306 10.2858C69.2037 10.7187 68.6226 11.2232 68.1874 11.7991C67.7299 12.3953 67.481 13.0876 67.4409 13.8759C67.4008 14.6642 67.575 15.2284 67.9635 15.5686C68.3297 15.929 68.811 16.1244 69.4076 16.1548C70.409 16.2058 71.3217 15.8998 72.1458 15.2368C72.9475 14.5941 73.5923 13.6763 74.0803 12.4836C74.5671 11.3122 74.8501 9.94881 74.9293 8.39349ZM49.9736 2.52009C52.2115 1.88847 54.1947 2.08239 55.9233 3.10186C57.6313 4.12712 58.862 5.97428 59.6153 8.64334C60.3397 11.2097 60.274 13.4117 59.4183 15.2492C58.5683 17.1073 56.932 18.3782 54.5093 19.062C53.4007 19.3749 52.3659 19.4785 51.4051 19.3729C50.45 19.2878 49.6305 18.976 48.9466 18.4375C48.2479 17.9254 47.7594 17.1766 47.4813 16.1911C47.0467 14.6512 47.3426 13.3042 48.369 12.15C49.3807 11.0221 50.9541 10.1569 53.0894 9.55422C53.9312 9.31663 54.7714 9.11274 55.61 8.94255C56.4339 8.79868 57.3031 8.69744 58.2175 8.63885L58.4515 9.70332C57.915 9.76607 57.3199 9.85646 56.666 9.9745C56.0122 10.0925 55.3436 10.2369 54.6602 10.4076C53.9827 10.5988 53.3505 10.8327 52.7635 11.1092C52.1823 11.4062 51.683 11.7577 51.2656 12.1637C50.854 12.5902 50.5872 13.0978 50.4651 13.6864C50.3226 14.2808 50.3614 14.9681 50.5816 15.7483C50.8018 16.5285 51.1135 17.0833 51.5169 17.4128C51.9202 17.7423 52.3709 17.9255 52.8689 17.9622C53.3522 18.0253 53.83 17.9902 54.3022 17.8569C55.6162 17.4861 56.5084 16.6025 56.9789 15.2062C57.4345 13.8363 57.3495 12.0426 56.7236 9.82524C56.2543 8.16221 55.6649 6.89879 54.9556 6.03498C54.2521 5.1917 53.4597 4.66168 52.5783 4.44493C51.6823 4.25451 50.7517 4.29547 49.7868 4.56783C48.6781 4.88074 47.7768 5.37894 47.0831 6.06242C46.3951 6.76642 46.013 7.57251 45.9369 8.48068C45.7084 8.45651 45.5212 8.34309 45.3753 8.14042C45.2294 7.93776 45.1867 7.55081 45.2472 6.97958C45.3707 5.92504 45.8557 5.01233 46.7021 4.24143C47.5486 3.47053 48.639 2.89675 49.9736 2.52009ZM28.083 4.45035C28.8556 3.91722 29.6537 3.49613 30.4772 3.18705C31.3007 2.87798 32.0861 2.77663 32.8334 2.88301C33.551 2.98395 34.1522 3.38559 34.6369 4.08793C34.9882 4.59713 35.1271 5.13636 35.0533 5.70563C34.9675 6.25734 34.6524 6.72099 34.1081 7.0966C33.5989 7.44798 33.1272 7.55318 32.6929 7.4122C32.8297 7.08454 32.866 6.76145 32.8017 6.44293C32.7198 6.13653 32.6123 5.88676 32.479 5.69361C32.164 5.23709 31.7954 4.94712 31.3733 4.8237C30.939 4.68272 30.4891 4.66921 30.0234 4.78319C29.5578 4.89717 29.123 5.09349 28.7192 5.37217C27.3145 6.34149 26.669 7.6034 26.7826 9.15789C26.8666 10.7069 27.6114 12.4999 29.0169 14.5367C29.2229 14.8352 29.4504 15.1836 29.6994 15.582C29.9429 16.0101 30.1865 16.4382 30.43 16.8663C30.6736 17.2943 30.8929 17.6873 31.088 18.0451L31.1518 18.701C30.2248 16.982 29.8468 15.3637 30.0177 13.846C30.1832 12.3581 31.0035 11.1052 32.4784 10.0874C33.7953 9.17868 35.0748 8.89189 36.3169 9.22704C37.5536 9.59187 38.8687 10.7839 40.2621 12.8031L43.7334 17.8337C44.0606 18.3077 44.4322 18.79 44.8484 19.2804C45.2646 19.7708 45.6883 20.1782 46.1195 20.5027C46.0585 20.7522 45.9589 21.0024 45.8209 21.2531C45.6775 21.5335 45.4477 21.7828 45.1316 22.0009C44.7278 22.2796 44.3242 22.3896 43.9209 22.331C43.5 22.2844 43.1441 22.0505 42.8533 21.6291L38.1098 14.7549C37.0435 13.2098 36.0891 12.1836 35.2466 11.6763C34.3866 11.1812 33.5264 11.2305 32.666 11.8242C32.1919 12.1513 31.8229 12.5744 31.559 13.0935C31.2776 13.6246 31.1397 14.2512 31.1453 14.973C31.1455 15.7245 31.3217 16.562 31.6738 17.4854C32.0259 18.4088 32.5836 19.4236 33.3469 20.5298C34.0376 21.5307 34.6158 22.3499 35.0817 22.9874C35.53 23.6371 35.9023 24.1578 36.1985 24.5495C36.5069 24.9588 36.7931 25.2797 37.0572 25.5121C37.3158 25.7743 37.586 26.0155 37.8676 26.2359C37.835 26.4139 37.7469 26.6432 37.6035 26.9236C37.46 27.204 37.2127 27.4654 36.8616 27.7077C36.4753 27.9743 36.0656 28.0755 35.6326 28.0115C35.1996 27.9474 34.8256 27.6871 34.5106 27.2306L26.869 16.2132C25.5968 14.3696 24.8721 12.7183 24.6949 11.2595C24.488 9.79529 24.7011 8.50777 25.3342 7.39695C25.9552 6.26859 26.8715 5.28638 28.083 4.45035ZM9.72436 31.6831C10.0008 31.227 10.3881 30.9379 10.8863 30.8158C11.3844 30.6937 11.8524 30.7653 12.2902 31.0307C12.7463 31.3072 13.0354 31.6945 13.1575 32.1927C13.2797 32.6908 13.2025 33.1679 12.926 33.624C12.6606 34.0618 12.2788 34.3418 11.7807 34.4639C11.2825 34.586 10.8054 34.5089 10.3493 34.2324C9.91151 33.967 9.63154 33.5852 9.50941 33.087C9.38729 32.5889 9.45894 32.1209 9.72436 31.6831Z" fill="#F1C953"/>
</svg>
