<svg width="49" height="49" viewBox="0 0 49 49" fill="none" xmlns="http://www.w3.org/2000/svg">
<path d="M24.495 48.99C38.0232 48.99 48.99 38.0232 48.99 24.495C48.99 10.9668 38.0232 0 24.495 0C10.9668 0 0 10.9668 0 24.495C0 38.0232 10.9668 48.99 24.495 48.99Z" fill="#E30A17"/>
<path d="M15.231 24.495C15.231 18.253 20.291 13.195 26.53 13.195C28.434 13.195 30.229 13.667 31.801 14.499C29.249 11.948 25.717 10.369 21.825 10.369C14.025 10.369 7.701 16.693 7.701 24.495C7.701 32.297 14.025 38.621 21.825 38.621C25.724 38.621 29.249 37.042 31.801 34.494C30.229 35.326 28.434 35.795 26.53 35.795C20.291 35.795 15.231 30.735 15.231 24.495Z" fill="white"/>
<path d="M32.124 24.528L36.663 22.83L36.873 17.988L39.892 21.781L44.56 20.486L41.886 24.528L44.56 28.569L39.892 27.274L36.873 31.067L36.663 26.223L32.124 24.528Z" fill="white"/>
</svg>
